<?xml version="1.0" encoding="UTF-8" standalone="no"?>
<!DOCTYPE svg PUBLIC "-//W3C//DTD SVG 1.1//EN" "http://www.w3.org/Graphics/SVG/1.1/DTD/svg11.dtd">
<svg width="100%" height="100%" viewBox="0 0 300 300" version="1.1" xmlns="http://www.w3.org/2000/svg" xmlns:xlink="http://www.w3.org/1999/xlink" xml:space="preserve" xmlns:serif="http://www.serif.com/" style="fill-rule:evenodd;clip-rule:evenodd;stroke-linejoin:round;stroke-miterlimit:2;">
    <g transform="matrix(1,0,0,1,-2960,-1240)">
        <g>
            <g transform="matrix(0.75,0,0,1,485,340)">
                <rect x="3300" y="900" width="400" height="300" style="fill:rgb(246,242,224);"/>
                <clipPath id="_clip1">
                    <rect x="3300" y="900" width="400" height="300"/>
                </clipPath>
                <g clip-path="url(#_clip1)">
                    <g transform="matrix(0.751066,-0.0743201,0.0990935,0.5633,2201.79,703.697)">
                        <path d="M1484.06,669.684C1484.06,669.684 1517.34,491.645 1534.17,453.098C1542.78,433.394 1593.38,420.419 1614.77,422.664C1633.54,424.634 1678.56,434.295 1747.58,455.47C1787.51,467.722 1833.49,476.715 1844.75,504.244C1847.45,510.843 1813.1,612.319 1807.63,627.602C1778.21,709.784 1768.91,773.158 1768.91,773.158C1768.91,773.158 1651.19,752.243 1604.28,732.6C1559.58,713.886 1484.06,669.684 1484.06,669.684Z" style="fill:rgb(254,207,114);"/>
                    </g>
                    <g transform="matrix(0.751066,-0.0743201,0.0990935,0.5633,2201.79,703.697)">
                        <path d="M1450.05,637.086C1488.14,652.933 1556.88,704.706 1663.87,745.951C1723.03,768.761 1830.57,766.77 1862.11,774.165C1873.54,776.843 1864.12,796.805 1857.71,798.151C1844.29,800.97 1694.48,788.53 1651.54,770.3C1595.58,746.535 1469.18,680.764 1437.77,659.384C1430.76,654.61 1442.21,633.828 1450.05,637.086Z" style="fill:rgb(253,173,13);"/>
                    </g>
                </g>
            </g>
            <g transform="matrix(0.706314,0,0,0.706314,1966.72,810.313)">
                <g transform="matrix(1.07606,0,0,1.06475,-131.792,-58.3338)">
                    <circle cx="1533.73" cy="881.769" r="50.955" style="fill:rgb(214,241,255);"/>
                </g>
                <g transform="matrix(1.07606,0,0,1.06475,-131.792,-58.3338)">
                    <circle cx="1533.73" cy="881.769" r="50.955" style="fill:rgb(214,241,255);"/>
                    <clipPath id="_clip2">
                        <circle cx="1533.73" cy="881.769" r="50.955"/>
                    </clipPath>
                    <g clip-path="url(#_clip2)">
                        <g transform="matrix(1.27089,-0.344153,0.340535,1.2844,-3017.87,110.665)">
                            <rect x="3140.55" y="1458.62" width="126.194" height="53.181" style="fill:rgb(173,228,255);"/>
                        </g>
                    </g>
                </g>
                <g transform="matrix(1.07606,0,0,1.06475,66.3579,-58.3338)">
                    <circle cx="1533.73" cy="881.769" r="50.955" style="fill:rgb(214,241,255);"/>
                </g>
                <g transform="matrix(1.07606,0,0,1.06475,66.3579,-58.3338)">
                    <circle cx="1533.73" cy="881.769" r="50.955" style="fill:rgb(214,241,255);"/>
                    <clipPath id="_clip3">
                        <circle cx="1533.73" cy="881.769" r="50.955"/>
                    </clipPath>
                    <g clip-path="url(#_clip3)">
                        <g transform="matrix(1.27089,-0.344153,0.340535,1.2844,-3017.87,110.665)">
                            <rect x="3140.55" y="1458.62" width="126.194" height="53.181" style="fill:rgb(173,228,255);"/>
                        </g>
                    </g>
                </g>
                <g transform="matrix(1.41463,0,0,1.41463,-2781.28,-1085.99)">
                    <path d="M3131.68,1379.97C3136.32,1357.73 3156.04,1341 3179.65,1341C3206.69,1341 3228.64,1362.96 3228.64,1390C3228.64,1417.04 3206.69,1439 3179.65,1439C3154.65,1439 3134,1420.24 3131.02,1396.04C3124.11,1394.64 3117.07,1393.94 3110,1393.94C3102.93,1393.94 3095.89,1394.64 3088.98,1396.04C3086,1420.24 3065.35,1439 3040.35,1439C3013.31,1439 2991.36,1417.04 2991.36,1390C2991.36,1362.96 3013.31,1341 3040.35,1341C3063.96,1341 3083.68,1357.73 3088.32,1379.97C3095.47,1378.68 3102.72,1378.04 3110,1378.04C3117.28,1378.04 3124.53,1378.68 3131.68,1379.97ZM3179.65,1354.99C3198.97,1354.99 3214.66,1370.68 3214.66,1390C3214.66,1409.32 3198.97,1425.01 3179.65,1425.01C3160.33,1425.01 3144.64,1409.32 3144.64,1390C3144.64,1370.68 3160.33,1354.99 3179.65,1354.99ZM3040.35,1354.99C3059.67,1354.99 3075.36,1370.68 3075.36,1390C3075.36,1409.32 3059.67,1425.01 3040.35,1425.01C3021.03,1425.01 3005.34,1409.32 3005.34,1390C3005.34,1370.68 3021.03,1354.99 3040.35,1354.99Z" style="fill:rgb(214,40,40);"/>
                </g>
            </g>
        </g>
    </g>
</svg>
