<?xml version="1.0" encoding="UTF-8" standalone="no"?>
<!DOCTYPE svg PUBLIC "-//W3C//DTD SVG 1.1//EN" "http://www.w3.org/Graphics/SVG/1.1/DTD/svg11.dtd">
<svg width="100%" height="100%" viewBox="0 0 300 300" version="1.1"
    xmlns="http://www.w3.org/2000/svg"
    xmlns:xlink="http://www.w3.org/1999/xlink" xml:space="preserve"
    xmlns:serif="http://www.serif.com/" style="fill-rule:evenodd;clip-rule:evenodd;stroke-linejoin:round;stroke-miterlimit:2;">
    <g transform="matrix(1,0,0,1,-3300,-1600)">
        <g>
            <!--<g transform="matrix(0.75,0,0,1,825,700)">
                <rect x="3300" y="900" width="400" height="300" style="fill:#F6F2E0"/>
            </g>-->
            <g transform="matrix(1,0,0,1,0,-42.0152)">
                <g transform="matrix(0.760036,0,0,0.752046,2213.63,1129.11)">
                    <circle cx="1533.73" cy="881.769" r="50.955" style="fill:rgb(214,241,255);"/>
                </g>
                <g transform="matrix(0.760036,0,0,0.752046,2213.63,1129.11)">
                    <circle cx="1533.73" cy="881.769" r="50.955" style="fill:rgb(214,241,255);"/>
                    <clipPath id="_clip1">
                        <circle cx="1533.73" cy="881.769" r="50.955"/>
                    </clipPath>
                    <g clip-path="url(#_clip1)">
                        <g transform="matrix(1.27089,-0.344153,0.340535,1.2844,-3017.87,110.665)">
                            <rect x="3140.55" y="1458.62" width="126.194" height="53.181" style="fill:rgb(173,228,255);"/>
                        </g>
                    </g>
                </g>
                <g transform="matrix(0.760036,0,0,0.752046,2353.59,1129.11)">
                    <circle cx="1533.73" cy="881.769" r="50.955" style="fill:rgb(214,241,255);"/>
                </g>
                <g transform="matrix(0.760036,0,0,0.752046,2353.59,1129.11)">
                    <circle cx="1533.73" cy="881.769" r="50.955" style="fill:rgb(214,241,255);"/>
                    <clipPath id="_clip2">
                        <circle cx="1533.73" cy="881.769" r="50.955"/>
                    </clipPath>
                    <g clip-path="url(#_clip2)">
                        <g transform="matrix(1.27089,-0.344153,0.340535,1.2844,-3017.87,110.665)">
                            <rect x="3140.55" y="1458.62" width="126.194" height="53.181" style="fill:rgb(173,228,255);"/>
                        </g>
                    </g>
                </g>
                <g transform="matrix(0.999171,0,0,0.999171,342.26,403.259)">
                    <path d="M3131.68,1379.97C3136.32,1357.73 3156.04,1341 3179.65,1341C3206.69,1341 3228.64,1362.96 3228.64,1390C3228.64,1417.04 3206.69,1439 3179.65,1439C3154.65,1439 3134,1420.24 3131.02,1396.04C3124.11,1394.64 3117.07,1393.94 3110,1393.94C3102.93,1393.94 3095.89,1394.64 3088.98,1396.04C3086,1420.24 3065.35,1439 3040.35,1439C3013.31,1439 2991.36,1417.04 2991.36,1390C2991.36,1362.96 3013.31,1341 3040.35,1341C3063.96,1341 3083.68,1357.73 3088.32,1379.97C3095.47,1378.68 3102.72,1378.04 3110,1378.04C3117.28,1378.04 3124.53,1378.68 3131.68,1379.97ZM3179.65,1354.99C3198.97,1354.99 3214.66,1370.68 3214.66,1390C3214.66,1409.32 3198.97,1425.01 3179.65,1425.01C3160.33,1425.01 3144.64,1409.32 3144.64,1390C3144.64,1370.68 3160.33,1354.99 3179.65,1354.99ZM3040.35,1354.99C3059.67,1354.99 3075.36,1370.68 3075.36,1390C3075.36,1409.32 3059.67,1425.01 3040.35,1425.01C3021.03,1425.01 3005.34,1409.32 3005.34,1390C3005.34,1370.68 3021.03,1354.99 3040.35,1354.99Z" style="fill:#e11d48;"/>
                </g>
                <g transform="matrix(0.707647,0,0,0.707647,2304.33,1169.05)">
                    <path d="M1519.4,811.028C1557.66,811.028 1588.71,842.085 1588.71,880.338C1588.71,918.592 1557.66,949.649 1519.4,949.649C1481.15,949.649 1450.09,918.592 1450.09,880.338C1450.09,842.085 1481.15,811.028 1519.4,811.028ZM1519.4,828.803C1547.85,828.803 1570.94,851.895 1570.94,880.338C1570.94,908.781 1547.85,931.873 1519.4,931.873C1490.96,931.873 1467.87,908.781 1467.87,880.338C1467.87,851.895 1490.96,828.803 1519.4,828.803Z" style="fill:#e11d48;"/>
                </g>
                <g transform="matrix(0.707647,0,0,0.707647,2443.98,1169.05)">
                    <path d="M1519.4,811.028C1557.66,811.028 1588.71,842.085 1588.71,880.338C1588.71,918.592 1557.66,949.649 1519.4,949.649C1481.15,949.649 1450.09,918.592 1450.09,880.338C1450.09,842.085 1481.15,811.028 1519.4,811.028ZM1519.4,828.803C1547.85,828.803 1570.94,851.895 1570.94,880.338C1570.94,908.781 1547.85,931.873 1519.4,931.873C1490.96,931.873 1467.87,908.781 1467.87,880.338C1467.87,851.895 1490.96,828.803 1519.4,828.803Z" style="fill:#e11d48;"/>
                </g>
                <g transform="matrix(0.707647,0,0,0.707647,2304.33,1169.05)">
                    <path d="M1583.1,867.026C1599.65,858.165 1635.52,857.404 1652.79,865.104C1661.23,868.866 1659.67,894.006 1651.59,890.975C1637.39,885.652 1606.14,884.616 1584.07,890.49C1580.41,891.464 1582.2,881.33 1582.38,879.257C1582.76,874.791 1581.99,871.368 1583.1,867.026Z" style="fill:#e11d48;"/>
                </g>
                <g transform="matrix(0.754577,0,0,0.754577,1428.47,497.915)">
                    <path d="M2585,1650C2620.87,1650 2650,1679.13 2650,1715C2650,1750.87 2620.87,1780 2585,1780C2549.13,1780 2520,1750.87 2520,1715C2520,1679.13 2549.13,1650 2585,1650ZM2585,1672.67C2608.36,1672.67 2627.33,1691.64 2627.33,1715C2627.33,1738.36 2608.36,1757.33 2585,1757.33C2561.64,1757.33 2542.67,1738.36 2542.67,1715C2542.67,1691.64 2561.64,1672.67 2585,1672.67Z" style="fill:#e11d48;"/>
                </g>
                <g transform="matrix(0.754577,0,0,0.754577,1568.6,497.915)">
                    <path d="M2585,1650C2620.87,1650 2650,1679.13 2650,1715C2650,1750.87 2620.87,1780 2585,1780C2549.13,1780 2520,1750.87 2520,1715C2520,1679.13 2549.13,1650 2585,1650ZM2585,1672.67C2608.36,1672.67 2627.33,1691.64 2627.33,1715C2627.33,1738.36 2608.36,1757.33 2585,1757.33C2561.64,1757.33 2542.67,1738.36 2542.67,1715C2542.67,1691.64 2561.64,1672.67 2585,1672.67Z" style="fill:#e11d48;"/>
                </g>
            </g>
        </g>
    </g>
</svg>
